<?xml version="1.0" encoding="utf-8"?>
<!-- Generator: Adobe Illustrator 21.0.2, SVG Export Plug-In . SVG Version: 6.00 Build 0)  -->
<svg version="1.1" id="Layer_1" xmlns="http://www.w3.org/2000/svg" xmlns:xlink="http://www.w3.org/1999/xlink" x="0px" y="0px"
	 viewBox="0 0 100 100" style="enable-background:new 0 0 100 100;" xml:space="preserve">
<path d="M93,90.9h-3.4V52.4c0-1.1-0.9-2-2-2c-1.1,0-2,0.9-2,2v24.7h-9.9c-1.1,0-2,0.9-2,2c0,1.1,0.9,2,2,2h9.9V85H67.8
	c-1.1,0-2,0.9-2,2c0,1.1,0.9,2,2,2h17.8v1.9h-36V85c0-1.7-1.3-3-3-3h-8.9v-22c0-5.3-4.3-9.6-9.6-9.6c-5.1,0-9.3,4.2-9.3,9.3V82h-2.4
	V41.5l34.5-23l40.6,27.9c0,0,0,0,0,0c0.1,0.1,0.3,0.2,0.5,0.2c0,0,0.1,0,0.1,0c0.2,0,0.3,0.1,0.5,0.1c0.2,0,0.3,0,0.5,0
	c0,0,0.1,0,0.1,0c0.1,0,0.2-0.1,0.3-0.1c0.1,0,0.1,0,0.1-0.1c0.1-0.1,0.2-0.1,0.2-0.2c0,0,0.1-0.1,0.1-0.1c0.1-0.1,0.2-0.2,0.3-0.3
	c0,0,0,0,0,0c0,0,0,0,0,0c0.2-0.2,0.3-0.5,0.3-0.8c0-0.1,0-0.2,0-0.4c0,0,0,0,0,0v-8.9c0-0.1,0-0.1,0-0.1c0-0.1,0-0.2,0-0.2
	c0-0.1,0-0.1-0.1-0.2c0-0.1,0-0.1-0.1-0.2c0-0.1-0.1-0.1-0.1-0.2c0-0.1,0-0.1-0.1-0.2c0-0.1-0.1-0.1-0.1-0.1c0-0.1-0.1-0.1-0.1-0.2
	c-0.1,0-0.1-0.1-0.2-0.2c0,0-0.1-0.1-0.1-0.1L52.1,5.5l0,0c-0.1,0-0.2-0.1-0.2-0.1c0,0-0.1,0-0.1-0.1c-0.1,0-0.2,0-0.2-0.1
	c0,0-0.1,0-0.1,0c-0.1,0-0.2,0-0.3,0c0,0-0.1,0-0.1,0c-0.1,0-0.2,0-0.3,0h0c-0.1,0-0.1,0-0.2,0.1c-0.1,0-0.1,0-0.2,0
	c0,0-0.1,0-0.1,0.1c-0.1,0-0.2,0.1-0.2,0.1h0l-43,28.7c-0.1,0.1-0.2,0.2-0.3,0.2c0,0-0.1,0.1-0.1,0.1c0,0.1-0.1,0.1-0.1,0.2
	c0,0.1-0.1,0.1-0.1,0.2c0,0.1-0.1,0.1-0.1,0.2c0,0.1,0,0.1-0.1,0.2c0,0.1,0,0.1-0.1,0.2c0,0.1,0,0.3,0,0.4c0,0,0,0,0,0v8.9
	c0,0,0,0.1,0,0.1c0,0.1,0,0.2,0,0.3c0,0.1,0,0.1,0.1,0.2c0,0.1,0,0.1,0.1,0.2c0,0.1,0.1,0.2,0.1,0.3c0,0,0,0,0,0.1
	c0.1,0.1,0.2,0.2,0.3,0.3c0,0,0.1,0.1,0.1,0.1c0.1,0.1,0.2,0.1,0.2,0.2c0,0,0.1,0,0.1,0.1c0.1,0,0.2,0.1,0.3,0.1c0,0,0.1,0,0.1,0
	c0.2,0,0.3,0,0.5,0c0,0,0,0,0,0c0.2,0,0.3,0,0.5-0.1c0,0,0.1,0,0.1,0c0.2-0.1,0.3-0.1,0.5-0.2h0l0,0l3.3-2.2V82H10c-1.7,0-3,1.3-3,3
	v5.9c-1.1,0-2,0.9-2,2c0,1.1,0.9,2,2,2h86c1.1,0,2-0.9,2-2C95,91.8,94.1,90.9,93,90.9z M22.8,59.6c0-2.9,2.4-5.3,5.3-5.3
	c3.1,0,5.6,2.5,5.6,5.6v22H22.8V59.6z M10,40.9v-4.1L51,9.5l39.7,27.3v4L52.1,14.4c0,0,0,0,0,0c-0.1,0-0.2-0.1-0.2-0.1
	c0,0-0.1,0-0.1-0.1c-0.1,0-0.2-0.1-0.3-0.1c0,0-0.1,0-0.1,0c-0.1,0-0.2,0-0.4,0l0,0c-0.2,0-0.4,0-0.6,0.1c0,0-0.1,0-0.2,0.1
	c0,0-0.1,0-0.1,0.1c-0.1,0-0.2,0.1-0.2,0.1c0,0,0,0,0,0L10,40.9z M45.5,90.9H11V86h11.5c0.1,0,0.2,0,0.2,0h11.1c0.1,0,0.1,0,0.2,0
	h11.5V90.9z M32.7,67.8c0,0.1,0,0.3,0,0.4c0,0.5-0.2,1-0.6,1.4c-0.2,0.2-0.4,0.3-0.7,0.4c-0.2,0.1-0.5,0.1-0.8,0.1
	c-0.3,0-0.5,0-0.8-0.1c-0.2-0.1-0.5-0.2-0.6-0.4c-0.4-0.4-0.6-0.9-0.6-1.4c0-0.1,0-0.3,0-0.4c0-0.1,0.1-0.3,0.1-0.4
	c0-0.1,0.1-0.2,0.2-0.3c0.1-0.1,0.1-0.2,0.2-0.3c0.8-0.7,2.1-0.7,2.8,0c0.1,0.1,0.2,0.2,0.2,0.3c0.1,0.1,0.1,0.2,0.2,0.3
	C32.6,67.5,32.7,67.7,32.7,67.8z M51,74.1h27.6c1.7,0,3-1.3,3-3V51.4c0-1.7-1.3-3-3-3H51c-1.7,0-3,1.3-3,3v19.8
	C48,72.8,49.4,74.1,51,74.1z M73.8,52.4h3.9v17.8h-3.9V52.4z M59.9,52.4h9.8v17.8h-9.8V52.4z M52,52.4h3.9v17.8H52V52.4z M58.9,31.6
	c0-4.4-3.6-7.9-7.9-7.9s-7.9,3.6-7.9,7.9s3.6,7.9,7.9,7.9S58.9,36,58.9,31.6z M47.1,31.6c0-2.2,1.8-3.9,3.9-3.9s3.9,1.8,3.9,3.9
	s-1.8,3.9-3.9,3.9S47.1,33.8,47.1,31.6z"/>
</svg>
