<?xml version="1.0" encoding="utf-8"?>
<!-- Generator: Adobe Illustrator 21.0.2, SVG Export Plug-In . SVG Version: 6.00 Build 0)  -->
<svg version="1.1" id="Layer_1" xmlns="http://www.w3.org/2000/svg" xmlns:xlink="http://www.w3.org/1999/xlink" x="0px" y="0px"
	 viewBox="0 0 100 100" style="enable-background:new 0 0 100 100;" xml:space="preserve">
<path d="M14.5,42h-3C7.9,42,5,44.9,5,48.5v3c0,3.6,2.9,6.5,6.5,6.5h3c3.6,0,6.5-2.9,6.5-6.5v-3C21,44.9,18.1,42,14.5,42z M15,51.5
	c0,0.3-0.2,0.5-0.5,0.5h-3c-0.3,0-0.5-0.2-0.5-0.5v-3c0-0.3,0.2-0.5,0.5-0.5h3c0.3,0,0.5,0.2,0.5,0.5V51.5z M51.5,42h-3
	c-3.6,0-6.5,2.9-6.5,6.5v3c0,3.6,2.9,6.5,6.5,6.5h3c3.6,0,6.5-2.9,6.5-6.5v-3C58,44.9,55.1,42,51.5,42z M52,51.5
	c0,0.3-0.2,0.5-0.5,0.5h-3c-0.3,0-0.5-0.2-0.5-0.5v-3c0-0.3,0.2-0.5,0.5-0.5h3c0.3,0,0.5,0.2,0.5,0.5V51.5z M88.5,42h-3
	c-3.6,0-6.5,2.9-6.5,6.5v3c0,3.6,2.9,6.5,6.5,6.5h3c3.6,0,6.5-2.9,6.5-6.5v-3C95,44.9,92.1,42,88.5,42z M89,51.5
	c0,0.3-0.2,0.5-0.5,0.5h-3c-0.3,0-0.5-0.2-0.5-0.5v-3c0-0.3,0.2-0.5,0.5-0.5h3c0.3,0,0.5,0.2,0.5,0.5V51.5z"/>
</svg>
