<?xml version="1.0" encoding="utf-8"?>
<!-- Generator: Adobe Illustrator 21.0.2, SVG Export Plug-In . SVG Version: 6.00 Build 0)  -->
<svg version="1.1" id="Layer_1" xmlns="http://www.w3.org/2000/svg" xmlns:xlink="http://www.w3.org/1999/xlink" x="0px" y="0px"
	 viewBox="0 0 100 100" style="enable-background:new 0 0 100 100;" xml:space="preserve">
<g>
	<path d="M63.5,22.4c-0.4-0.4-0.9-0.6-1.4-0.6s-1,0.2-1.4,0.6L15.5,67.7c-0.8,0.8-0.8,2,0,2.8l14,14c0.4,0.4,0.9,0.6,1.4,0.6
		c0.5,0,1-0.2,1.4-0.6l45.2-45.2c0.8-0.8,0.8-2,0-2.8L63.5,22.4z M30.9,78.9l-9.8-9.8l41-41l9.8,9.8L30.9,78.9z"/>
	<path d="M93.3,15.1l-8.4-8.4C83.7,5.6,82.2,5,80.7,5c-1.5,0-3.1,0.6-4.2,1.8L65.9,17.2c-1.2,1.2-1.2,3.1,0,4.2l12.6,12.6
		c0.6,0.6,1.4,0.9,2.1,0.9s1.5-0.3,2.1-0.9l10.5-10.5C95.6,21.2,95.6,17.4,93.3,15.1z M89.7,20.1l-9.1,9.1l-9.8-9.8l9.1-9.1
		c0.2-0.2,0.5-0.3,0.7-0.3s0.5,0.1,0.7,0.3l8.4,8.4C90.1,19,90.1,19.7,89.7,20.1z"/>
	<path d="M15.2,73.3c-0.8-0.8-1.8-1.2-2.8-1.2c-1.8,0-3.5,1.2-3.9,3.1L5.1,90.1C4.5,92.7,6.5,95,9,95c0.3,0,0.6,0,0.9-0.1l14.9-3.4
		c3.1-0.7,4.2-4.5,1.9-6.7L15.2,73.3z M10.3,89.7L13,78.1l8.9,8.9L10.3,89.7z"/>
</g>
</svg>
