<?xml version="1.0" encoding="utf-8"?>
<!-- Generator: Adobe Illustrator 21.0.2, SVG Export Plug-In . SVG Version: 6.00 Build 0)  -->
<svg version="1.1" id="Layer_1" xmlns="http://www.w3.org/2000/svg" xmlns:xlink="http://www.w3.org/1999/xlink" x="0px" y="0px"
	 viewBox="0 0 100 100" style="enable-background:new 0 0 100 100;" xml:space="preserve">
<path d="M83,5H17C10.4,5,5,10.4,5,17v66c0,6.6,5.4,12,12,12h66c6.6,0,12-5.4,12-12V17C95,10.4,89.6,5,83,5z M89,83c0,3.3-2.7,6-6,6
	H17c-3.3,0-6-2.7-6-6V17c0-3.3,2.7-6,6-6h66c3.3,0,6,2.7,6,6V83z M79,50c0,1.1-0.9,2-2,2H52v25c0,1.1-0.9,2-2,2s-2-0.9-2-2V52H23
	c-1.1,0-2-0.9-2-2s0.9-2,2-2h25V23c0-1.1,0.9-2,2-2s2,0.9,2,2v25h25C78.1,48,79,48.9,79,50z"/>
</svg>
