<?xml version="1.0" encoding="utf-8"?>
<!-- Generator: Adobe Illustrator 21.0.2, SVG Export Plug-In . SVG Version: 6.00 Build 0)  -->
<svg version="1.1" id="Layer_1" xmlns="http://www.w3.org/2000/svg" xmlns:xlink="http://www.w3.org/1999/xlink" x="0px" y="0px"
	 viewBox="0 0 100 100" style="enable-background:new 0 0 100 100;" xml:space="preserve">
<path d="M83,5H17C10.4,5,5,10.4,5,17v66c0,6.6,5.4,12,12,12h66c6.6,0,12-5.4,12-12V17C95,10.4,89.6,5,83,5z M89,83c0,3.3-2.7,6-6,6
	H17c-3.3,0-6-2.7-6-6V17c0-3.3,2.7-6,6-6h66c3.3,0,6,2.7,6,6V83z M70.5,32.3L52.8,50l17.7,17.7c0.8,0.8,0.8,2,0,2.8
	c-0.4,0.4-0.9,0.6-1.4,0.6s-1-0.2-1.4-0.6L50,52.8L32.3,70.5c-0.4,0.4-0.9,0.6-1.4,0.6s-1-0.2-1.4-0.6c-0.8-0.8-0.8-2,0-2.8L47.2,50
	L29.5,32.3c-0.8-0.8-0.8-2,0-2.8c0.8-0.8,2-0.8,2.8,0L50,47.2l17.7-17.7c0.8-0.8,2-0.8,2.8,0C71.3,30.3,71.3,31.5,70.5,32.3z"/>
</svg>
